# xmcd
#
# Track frame offsets: 
#        150
#        5072
#        18536
#        37375
#        58911
#        75399
#        97981
#        112414
#        130613
#        149173
#        165183
#        186348
#        204258
#        225069
#
# Disc length: 3249 seconds
#
# Revision: 1
# Processed by: cddbd v1.5.2PL0 Copyright (c) Steve Scherf et al.
# Submitted via: ExactAudioCopy v0.99pb5
#
DISCID=bb0caf0e
DTITLE=Зьмiцер Вайцюшкевiч - Liryka
DYEAR=2007
DGENRE=Vocal
TTITLE0=Наша Песьня
TTITLE1=Найвышэйшыя Сiлы
TTITLE2=Цi Успамiнала Ты Мяне
TTITLE3=Шчыра Кахаю
TTITLE4=Суседка
TTITLE5=Як Вецер
TTITLE6=Я Зьбiраўся На Чоўне
TTITLE7=Капае Дождж
TTITLE8=Месяц - Жоўтая Лодка
TTITLE9=Чароўны Сон
TTITLE10=Вочы Твае
TTITLE11=Салавей
TTITLE12=Твая Пяшчота
TTITLE13=Новы Год
EXTD=
EXTT0=
EXTT1=
EXTT2=
EXTT3=
EXTT4=
EXTT5=
EXTT6=
EXTT7=
EXTT8=
EXTT9=
EXTT10=
EXTT11=
EXTT12=
EXTT13=
PLAYORDER=
